<svg id="Layer_1" data-name="Layer 1" xmlns="http://www.w3.org/2000/svg" viewBox="0 0 294.06 93.5"><defs><style>.cls-1{fill:#68bc71;}.cls-2{fill:#67b279;}.cls-3{fill:#fff;}.cls-4{fill:#f0f0f0;}</style></defs><g id="logo"><g id="Group-10"><g id="Group-9"><g id="Group-8"><g id="Group-7"><path id="Path" class="cls-1" d="M45.6,0C31.4,0,14.2,3.4,0,10.7,0,26.6-.2,66.4,45.6,93.5,91.5,66.4,91.3,26.7,91.3,10.7,77.1,3.4,59.9,0,45.6,0Z"/><path id="Combined-Shape" class="cls-2" d="M45.6,93.5C-.2,66.4,0,26.7,0,10.7,14.1,3.4,31.3,0,45.6,0Z"/></g><path id="Fill-11" class="cls-3" d="M44,62.4,71.6,25.2c-2-1.6-3.8-.5-4.8.4h0l-23,23.9L35.1,39.1C30.9,34.4,25.3,38,24,39L44,62.4"/></g></g></g></g><path class="cls-4" d="M143,50l-8.71,0L132,43.47H118.44L116.13,50h-8.7l13.62-35h8.37ZM125.21,24.51l-4.54,12.71h9.12Z"/><path class="cls-4" d="M159.92,36.33v-6.9h16.6V48.76a48,48,0,0,1-14.9,2,24.78,24.78,0,0,1-7.49-1.09,18.11,18.11,0,0,1-6.08-3.27,14.43,14.43,0,0,1-4.14-5.77,21.57,21.57,0,0,1-1.49-8.28q0-8.8,5.49-13.49t14.28-4.68a30.76,30.76,0,0,1,13.19,2.5v8.49a28,28,0,0,0-12.2-3.06c-3.69,0-6.56.84-8.63,2.52s-3.09,4.26-3.09,7.72q0,5.43,3.12,8a12.2,12.2,0,0,0,7.94,2.55,47.56,47.56,0,0,0,5.63-.37V36.29Z"/><path class="cls-4" d="M191,14.87V42.5H206.5V50l-24,0V14.87Z"/><path class="cls-4" d="M217.62,22.47a4.43,4.43,0,0,1-3.22,1.3,4.55,4.55,0,0,1-3.26-1.3,4.37,4.37,0,0,1-1.33-3.2,4.24,4.24,0,0,1,1.33-3.15,4.6,4.6,0,0,1,3.26-1.3,4.47,4.47,0,0,1,3.22,1.3A4.2,4.2,0,0,1,219,19.27,4.33,4.33,0,0,1,217.62,22.47Zm-7.15,4h7.86V50h-7.86Z"/><path class="cls-4" d="M240.36,25.67q8.23,0,8.23,9.41V50h-7.85V37.86q0-5.23-4-5.23a4.4,4.4,0,0,0-3.5,1.41A6,6,0,0,0,232,38.1V50h-7.85V26.46H232v3.2Q234.55,25.67,240.36,25.67Z"/><path class="cls-4" d="M266.94,44a12.65,12.65,0,0,0,5.53-1.29v7a23.23,23.23,0,0,1-7.75,1.2q-4.83,0-7.33-2.71t-2.51-7.86V32.9h-3.45v-.55l10.83-11.87h.47v6H271V32.9h-8.23V39a5.8,5.8,0,0,0,1,3.82A4,4,0,0,0,266.94,44Z"/><path class="cls-4" d="M120.22,77.2h-1.55l-1.38-3.42h-6.77l-1.39,3.42h-1.56l5.6-13.52h1.47ZM113.9,65.43,111,72.57h5.79Z"/><path class="cls-4" d="M128.16,68.56V63.68h1.4V77.2H128.4l-.17-1.62a4,4,0,0,1-3.69,1.89,3.69,3.69,0,0,1-2.86-1.13,4.47,4.47,0,0,1-1-3.19,5.14,5.14,0,0,1,1.29-3.73,4.72,4.72,0,0,1,3.57-1.35A7.12,7.12,0,0,1,128.16,68.56Zm-3.31,7.61a3.21,3.21,0,0,0,2.37-.93,3.62,3.62,0,0,0,.94-2.68V69.77a7.12,7.12,0,0,0-2.43-.38,3.62,3.62,0,0,0-2.68,1,3.72,3.72,0,0,0-1,2.75,3.13,3.13,0,0,0,.75,2.26A2.67,2.67,0,0,0,124.85,76.17Z"/><path class="cls-4" d="M137.43,67.89A3.76,3.76,0,0,1,140.31,69a4.47,4.47,0,0,1,1.06,3.17A4.83,4.83,0,0,1,139.88,76a6.1,6.1,0,0,1-4.14,1.3,12.94,12.94,0,0,1-3.3-.37V63.68h1.41v6.18A3.91,3.91,0,0,1,137.43,67.89Zm-1.67,8.21a4.53,4.53,0,0,0,3.08-1A3.56,3.56,0,0,0,140,72.29a3.21,3.21,0,0,0-.76-2.27,2.69,2.69,0,0,0-2.07-.83,3.14,3.14,0,0,0-2.32.94,3.57,3.57,0,0,0-1,2.64l0,0v3.22A7.83,7.83,0,0,0,135.76,76.1Z"/><path class="cls-4" d="M143.41,63.68h1.4V77.2h-1.4Z"/><path class="cls-4" d="M146.84,72.7a4.67,4.67,0,1,1,9.33,0,4.54,4.54,0,0,1-1.35,3.51,4.69,4.69,0,0,1-3.31,1.22,4.79,4.79,0,0,1-3.33-1.22A4.57,4.57,0,0,1,146.84,72.7Zm2.36,2.56a3.4,3.4,0,0,0,4.61,0,3.4,3.4,0,0,0,.94-2.58,3.48,3.48,0,0,0-.94-2.59,3.35,3.35,0,0,0-4.61,0,3.48,3.48,0,0,0-.93,2.59A3.4,3.4,0,0,0,149.2,75.26Z"/><path class="cls-4" d="M161.84,77.43a4.44,4.44,0,0,1-3.22-1.22,4.62,4.62,0,0,1-1.26-3.51,4.82,4.82,0,0,1,1.27-3.55,4.35,4.35,0,0,1,3.21-1.26,5.48,5.48,0,0,1,2.75.69V70a4.15,4.15,0,0,0-2.63-.81,3,3,0,0,0-2.28.93,3.59,3.59,0,0,0-.88,2.58,3.51,3.51,0,0,0,.88,2.55,3.07,3.07,0,0,0,2.28.91,4.44,4.44,0,0,0,2.63-.74v1.4A5.9,5.9,0,0,1,161.84,77.43Z"/><path class="cls-4" d="M172.82,68.16h1.73l-3.84,3.35,3.78,5.69h-1.64l-3.18-4.77L168,73.91V77.2h-1.41V63.68H168V72.3Z"/><path class="cls-4" d="M182.05,68.16h6.12v9h-1.4V69.33h-4.72V77.2h-1.4V69.33H179V68.16h1.64v-1a3.88,3.88,0,0,1,.91-2.84,3.8,3.8,0,0,1,2.81-.92,7,7,0,0,1,3.23.65v1.31a6.34,6.34,0,0,0-3-.68,2.71,2.71,0,0,0-1.92.59,2.67,2.67,0,0,0-.6,2Z"/><path class="cls-4" d="M191.25,63.68h1.4V77.2h-1.4Z"/><path class="cls-4" d="M199.44,76.17a4.25,4.25,0,0,0,2.25-.59V77a6.1,6.1,0,0,1-2.56.52q-3.06,0-3.06-3.47V69.35h-1.54V68.16h1.54V66l1.41-.75v2.91h3.4v1.19h-3.4v4.43a2.78,2.78,0,0,0,.49,1.84A1.87,1.87,0,0,0,199.44,76.17Z"/><path class="cls-4" d="M206.78,67.89a3.57,3.57,0,0,1,2.83,1.21,5.53,5.53,0,0,1,1,3.89h-6.86a3,3,0,0,0,3.3,3.18,5.9,5.9,0,0,0,3.13-.75v1.37a8,8,0,0,1-3.29.64,4.56,4.56,0,0,1-3.3-1.22,4.67,4.67,0,0,1-1.27-3.53,4.79,4.79,0,0,1,1.27-3.53A4.34,4.34,0,0,1,206.78,67.89Zm0,1.23a2.8,2.8,0,0,0-2,.76,3.38,3.38,0,0,0-1,2.14h5.49a3.64,3.64,0,0,0-.8-2.18A2.23,2.23,0,0,0,206.76,69.12Z"/><path class="cls-4" d="M214.14,68.16V70a3.46,3.46,0,0,1,1.44-1.62,3.74,3.74,0,0,1,2.24-.43v1.49a3.82,3.82,0,0,0-2.73.67,2.83,2.83,0,0,0-1,2.34V77.2h-1.4v-9Z"/><path class="cls-4" d="M223.25,63.68h1.41V77.2h-1.41Z"/><path class="cls-4" d="M229.41,65.21a1,1,0,0,1-.27.7.93.93,0,0,1-.68.27.94.94,0,0,1-1-1,.94.94,0,0,1,.28-.68,1,1,0,0,1,.7-.27.9.9,0,0,1,.68.28A.92.92,0,0,1,229.41,65.21Zm-1.66,3h1.41v9h-1.41Z"/><path class="cls-4" d="M231.57,76.79V75.44a5.5,5.5,0,0,0,3.22.82,2.92,2.92,0,0,0,1.57-.36,1.21,1.21,0,0,0,.56-1.06,1.15,1.15,0,0,0-.49-1,4.53,4.53,0,0,0-1.68-.57,4.9,4.9,0,0,1-2.38-1.05,2.45,2.45,0,0,1-.71-1.81,2.12,2.12,0,0,1,.86-1.79A4.23,4.23,0,0,1,235.1,68a6.1,6.1,0,0,1,2.82.59v1.24a6.79,6.79,0,0,0-2.86-.73c-1.39,0-2.09.43-2.09,1.29a1.19,1.19,0,0,0,.5,1,4.77,4.77,0,0,0,1.75.61,4.82,4.82,0,0,1,2.25.92,2.55,2.55,0,0,1-.19,3.77,4.26,4.26,0,0,1-2.6.69A8.14,8.14,0,0,1,231.57,76.79Z"/><path class="cls-4" d="M244.21,76.17a4.3,4.3,0,0,0,2.25-.59V77a6.13,6.13,0,0,1-2.56.52q-3.06,0-3.06-3.47V69.35h-1.55V68.16h1.55V66l1.4-.75v2.91h3.4v1.19h-3.4v4.43a2.77,2.77,0,0,0,.5,1.84A1.87,1.87,0,0,0,244.21,76.17Z"/><path class="cls-4" d="M251.85,63.68h1.41V77.2h-1.41Z"/><path class="cls-4" d="M258,65.21a1,1,0,0,1-.27.7.93.93,0,0,1-.68.27.94.94,0,0,1-1-1,.94.94,0,0,1,.28-.68,1,1,0,0,1,.7-.27.9.9,0,0,1,.68.28A.92.92,0,0,1,258,65.21Zm-1.66,3h1.41v9h-1.41Z"/><path class="cls-4" d="M265.89,67.89c2.18,0,3.26,1.28,3.26,3.84V77.2h-1.4v-5a3.19,3.19,0,0,0-.65-2.34,2.25,2.25,0,0,0-1.71-.65,2.78,2.78,0,0,0-2.12.86,3.22,3.22,0,0,0-.81,2.29V77.2h-1.41v-9h1.41v1.75a3.19,3.19,0,0,1,1.34-1.49A4,4,0,0,1,265.89,67.89Z"/><path class="cls-4" d="M275.69,76.17a4.25,4.25,0,0,0,2.25-.59V77a6.1,6.1,0,0,1-2.56.52q-3.06,0-3.06-3.47V69.35h-1.55V68.16h1.55V66l1.4-.75v2.91h3.41v1.19h-3.41v4.43a2.77,2.77,0,0,0,.5,1.84A1.87,1.87,0,0,0,275.69,76.17Z"/><path class="cls-4" d="M283,67.89a3.57,3.57,0,0,1,2.83,1.21,5.58,5.58,0,0,1,1,3.89H280a3,3,0,0,0,3.3,3.18,5.92,5.92,0,0,0,3.13-.75v1.37a8.06,8.06,0,0,1-3.3.64,4.54,4.54,0,0,1-3.29-1.22,4.67,4.67,0,0,1-1.28-3.53,4.79,4.79,0,0,1,1.28-3.53A4.31,4.31,0,0,1,283,67.89Zm0,1.23a2.78,2.78,0,0,0-2,.76,3.38,3.38,0,0,0-1,2.14h5.49a3.7,3.7,0,0,0-.8-2.18A2.25,2.25,0,0,0,283,69.12Z"/><path class="cls-4" d="M290.39,68.16V70a3.46,3.46,0,0,1,1.44-1.62,3.73,3.73,0,0,1,2.23-.43v1.49a3.81,3.81,0,0,0-2.72.67,2.83,2.83,0,0,0-.95,2.34V77.2H289v-9Z"/></svg>