<svg xmlns="http://www.w3.org/2000/svg" viewBox="0 0 447.57 155.48">
  <defs>
    <style>
      .a {
        fill: #68b279;
      }

      .b {
        fill: #801710;
      }

      .c {
        fill: #4096d2;
      }

      .d {
        fill: #e00814;
      }

      .e {
        fill: #1d1d1b;
      }
    </style>
  </defs>
  <title>aglint_lightmode</title>
  <g>
    <path class="a" d="M71,146.49a9.5,9.5,0,0,0,2.3,1.7,9.5,9.5,0,0,1-2.3-1.7h0Z"/>
    <path class="a" d="M84.46,146.49h0a9.46,9.46,0,0,1-5.81,2.74A9.46,9.46,0,0,0,84.46,146.49Z"/>
    <path class="a" d="M148.47,73.94l0.13,0.29Z"/>
    <path class="a" d="M75,148.88a9.44,9.44,0,0,1-1.71-.7A9.44,9.44,0,0,0,75,148.88Z"/>
    <path class="a" d="M9,71a9.5,9.5,0,0,0-1.7,2.3A9.5,9.5,0,0,1,9,71H9Z"/>
    <path class="a" d="M6.59,75a9.45,9.45,0,0,1,.7-1.71A9.45,9.45,0,0,0,6.59,75Z"/>
    <path class="a" d="M9,84.46H9a9.46,9.46,0,0,1-2.74-5.81A9.46,9.46,0,0,0,9,84.46Z"/>
    <path class="a" d="M6.25,76.83a9.56,9.56,0,0,0,0,1.82A9.56,9.56,0,0,1,6.25,76.83Z"/>
    <path class="b" d="M83,114.35a345.47,345.47,0,0,1-35.7-25.12C41,99.86,36.64,109.11,34.74,116.42l25.21,25.21L71,152.69a9.5,9.5,0,0,0,13.44,0l25.75-25.75C102.91,125,93.66,120.72,83,114.35Z"/>
    <path class="a" d="M82.16,7.29A9.5,9.5,0,0,1,84.46,9h0A9.5,9.5,0,0,0,82.16,7.29Z"/>
    <path class="a" d="M71,9h0a9.46,9.46,0,0,1,2.92-2A9.46,9.46,0,0,0,71,9Z"/>
    <path class="a" d="M74.22,6.88a9.5,9.5,0,0,1,2.6-.63A9.5,9.5,0,0,0,74.22,6.88Z"/>
    <path class="a" d="M80.44,6.59a9.44,9.44,0,0,1,1.71.7A9.44,9.44,0,0,0,80.44,6.59Z"/>
    <path class="a" d="M78.65,6.25a9.56,9.56,0,0,0-1.82,0A9.56,9.56,0,0,1,78.65,6.25Z"/>
    <path class="c" d="M39.06,34.74L13.85,59.95,2.78,71a9.5,9.5,0,0,0,0,13.44l25.75,25.75c1.9-7.3,6.22-16.56,12.59-27.18a345.46,345.46,0,0,1,25.12-35.7C55.62,41,46.36,36.64,39.06,34.74Z"/>
    <path class="a" d="M148.88,80.44a9.45,9.45,0,0,1-.7,1.71A9.45,9.45,0,0,0,148.88,80.44Z"/>
    <path class="a" d="M148.6,74.22a9.5,9.5,0,0,1,.63,2.6A9.5,9.5,0,0,0,148.6,74.22Z"/>
    <path class="a" d="M146.49,84.46a9.5,9.5,0,0,0,1.7-2.3,9.5,9.5,0,0,1-1.7,2.3h0Z"/>
    <path class="a" d="M73.94,7l0.29-.13Z"/>
    <path class="a" d="M146.49,71h0a9.46,9.46,0,0,1,2,2.92A9.46,9.46,0,0,0,146.49,71Z"/>
    <path class="d" d="M114.35,72.45a345.46,345.46,0,0,1-25.12,35.7c10.63,6.37,19.88,10.69,27.18,12.59l25.21-25.21,11.07-11.07a9.5,9.5,0,0,0,2.11-10.23l-0.13-.29a9.46,9.46,0,0,0-2-2.92L126.94,45.26C125,52.57,120.72,61.82,114.35,72.45Z"/>
    <path class="a" d="M82.16,1.09a9.48,9.48,0,0,0-3.51-1,9.49,9.49,0,0,0-4.43.63l-0.29.13a9.46,9.46,0,0,0-2.92,2L45.26,28.54c7.3,1.9,16.56,6.22,27.18,12.59a345.47,345.47,0,0,1,35.7,25.12c6.37-10.63,10.69-19.88,12.59-27.18L95.53,13.85,84.46,2.78A9.5,9.5,0,0,0,82.16,1.09Z"/>
  </g>
  <g>
    <path class="e" d="M213.55,101.35H186.22l-5.33,12H167.75l32.14-72.25L232,113.37H218.88Zm-5.37-12-8.3-18.67-8.29,18.67h16.59Z"/>
    <path class="e" d="M274,85.32H258v-12H286v20q0,20-20,20H254q-20,0-20-20V65.28q0-20,20-20h12q20,0,20,20H274q0-8-8-8H254q-8,0-8,8V93.33q0,8,8,8h12q8,0,8-8v-8Z"/>
    <path class="e" d="M306.08,101.35h40.07v12h-52.1V45.25h12v56.1Z"/>
    <path class="e" d="M365.21,53A6.48,6.48,0,0,1,367.3,58a6.39,6.39,0,0,1-2.09,4.84,7.1,7.1,0,0,1-5,2,7,7,0,0,1-5-2A6.45,6.45,0,0,1,353.1,58,6.54,6.54,0,0,1,355.15,53a7,7,0,0,1,5-2A7.1,7.1,0,0,1,365.21,53Zm0.53,60.33H354.66V72.74h11.08v40.63Z"/>
    <path class="e" d="M406.7,76.31q4.1,4.47,4.1,11.86v25.2h-11V89.65a7.88,7.88,0,0,0-2.09-5.7,7.23,7.23,0,0,0-5.46-2.17,7.51,7.51,0,0,0-5.54,2.17,7.72,7.72,0,0,0-2.17,5.7v23.72H373.46V72.74h10.18v3.69a16.1,16.1,0,0,1,11.9-4.6Q402.59,71.84,406.7,76.31Z"/>
    <path class="e" d="M447.57,104.1v9.27a31.42,31.42,0,0,1-7.63,1q-7.72,0-12-3.82t-4.27-11.45v-17h-6.4V72.74h6.4V62.48h11.08V72.74h11.49V82.1H434.76v16q0,3.45,1.81,4.88t5.75,1.44Q443.3,104.42,447.57,104.1Z"/>
  </g>
</svg>
